# xmcd CD database file
#
# Track frame offsets:
#	150
#	20209
#	52120
#	84966
#	106424
#	126214
#	149656
#	170757
#	189372
#	216093
#	235720
#	249641
#
# Disc length: 3582 seconds
#
# Revision: 0
# Processed by: cddbd v1.5.2PL0 Copyright (c) Steve Scherf et al.
# Submitted via: CDex 1.51
#
DISCID=af0dfc0c
DTITLE=Various Artist - Salsa Dura Mundial
DYEAR=2008
DGENRE=Salsa
TTITLE0=THE ISRAEL SALSA BAND - Se Acabo la Malanga
TTITLE1=RUMBA CALIENTE - Papa Was a Rolling Stone/Papa Fue
TTITLE2=disLOCAdos - Resaca
TTITLE3=LA ORQUESTA REMEMBRANZAS - Para Cambiar De Sabor
TTITLE4=PANAMA - Pantera Rosa
TTITLE5=ALEX WILSON - Show Me (Featuring Mary Peace)
TTITLE6=CACHE - Lola
TTITLE7=VANNY JORDAN - Mi Candela
TTITLE8=LOS SALSEROS DEL BARRIO - Kin Kon (Ext. Version)
TTITLE9=JOE ACOSTA - Copacabana
TTITLE10=JOE ACOSTA - Mambo Potente
TTITLE11=MANDARINA CHINA BAND - Historia De Un Amor
EXTD=YEAR: 2008
EXTT0=
EXTT1=
EXTT2=
EXTT3=
EXTT4=
EXTT5=
EXTT6=
EXTT7=
EXTT8=
EXTT9=
EXTT10=
EXTT11=
PLAYORDER=
